HIERARCHY
ROOT Hips
{
	OFFSET 0.000000 103.266502 0.000000
	CHANNELS 6 Xposition Yposition Zposition Xrotation Yrotation Zrotation 
	JOINT Spine
	{
		OFFSET -0.002400 12.777504 0.315300
		CHANNELS 3 Xrotation Yrotation Zrotation
		JOINT Spine1
		{
			OFFSET -0.002067 5.816869 0.032633
			CHANNELS 3 Xrotation Yrotation Zrotation
			JOINT Spine1_split
			{
				OFFSET -0.002067 5.816869 0.032633
				CHANNELS 3 Xrotation Yrotation Zrotation
				JOINT Spine2
				{
					OFFSET -0.002067 5.816869 0.032633
					CHANNELS 3 Xrotation Yrotation Zrotation
					JOINT Neck
					{
						OFFSET -0.003700 21.199493 -0.826900
						CHANNELS 3 Xrotation Yrotation Zrotation
						JOINT Head
						{
							OFFSET 0.000000 20.442200 4.834800
							CHANNELS 3 Xrotation Yrotation Zrotation
							JOINT HeadTop_End
							{
								OFFSET 0.000000 34.668396 4.968400
								CHANNELS 3 Xrotation Yrotation Zrotation
								End Site
								{
									OFFSET 0.000000 0.000000 0.000000
								}
							}
						}
					}
					JOINT LeftShoulder
					{
						OFFSET 3.288150 8.794197 -1.372250
						CHANNELS 3 Xrotation Yrotation Zrotation
						JOINT LeftShoulder_split
						{
							OFFSET 3.288150 8.794197 -1.372250
							CHANNELS 3 Xrotation Yrotation Zrotation
							JOINT LeftArm
							{
								OFFSET 11.953299 -2.279007 -0.146200
								CHANNELS 3 Xrotation Yrotation Zrotation
								JOINT LeftForeArm
								{
									OFFSET 18.448900 0.000000 0.000000
									CHANNELS 3 Xrotation Yrotation Zrotation
									JOINT LeftHand
									{
										OFFSET 29.527798 0.000000 0.000000
										CHANNELS 3 Xrotation Yrotation Zrotation
										JOINT LeftHandThumb1
										{
											OFFSET 10.739754 -2.369614 9.225399
											CHANNELS 3 Xrotation Yrotation Zrotation
											JOINT LeftHandThumb2
											{
												OFFSET 4.926170 -2.844131 2.844125
												CHANNELS 3 Xrotation Yrotation Zrotation
												JOINT LeftHandThumb3
												{
													OFFSET 4.614891 -2.664413 2.664409
													CHANNELS 3 Xrotation Yrotation Zrotation
													JOINT LeftHandThumb4
													{
														OFFSET 4.432465 -2.559082 2.559083
														CHANNELS 3 Xrotation Yrotation Zrotation
														End Site
														{
															OFFSET 0.000000 0.000000 0.000000
														}
													}
												}
											}
										}
										JOINT LeftHandIndex1
										{
											OFFSET 26.467674 0.187653 6.405298
											CHANNELS 3 Xrotation Yrotation Zrotation
											JOINT LeftHandIndex2
											{
												OFFSET 8.792900 0.000000 0.000000
												CHANNELS 3 Xrotation Yrotation Zrotation
												JOINT LeftHandIndex3
												{
													OFFSET 10.075203 0.000000 0.000000
													CHANNELS 3 Xrotation Yrotation Zrotation
													End Site
													{
														OFFSET 0.000000 0.000000 0.000000
													}
												}
											}
										}
										JOINT LeftHandMiddle1
										{
											OFFSET 25.764404 0.000000 0.000000
											CHANNELS 3 Xrotation Yrotation Zrotation
											JOINT LeftHandMiddle2
											{
												OFFSET 9.393974 0.000000 0.000000
												CHANNELS 3 Xrotation Yrotation Zrotation
												JOINT LeftHandMiddle3
												{
													OFFSET 10.771950 0.000000 0.000000
													CHANNELS 3 Xrotation Yrotation Zrotation
													End Site
													{
														OFFSET 0.000000 0.000000 0.000000
													}
												}
											}
										}
										JOINT LeftHandRing1
										{
											OFFSET 24.660927 0.144547 -6.225808
											CHANNELS 3 Xrotation Yrotation Zrotation
											JOINT LeftHandRing2
											{
												OFFSET 9.393799 0.000000 0.000000
												CHANNELS 3 Xrotation Yrotation Zrotation
												JOINT LeftHandRing3
												{
													OFFSET 9.928497 0.000000 0.000000
													CHANNELS 3 Xrotation Yrotation Zrotation
													End Site
													{
														OFFSET 0.000000 0.000000 0.000000
													}
												}
											}
										}
										JOINT LeftHandPinky1
										{
											OFFSET 23.655350 0.125290 -12.815412
											CHANNELS 3 Xrotation Yrotation Zrotation
											JOINT LeftHandPinky2
											{
												OFFSET 8.425102 0.000000 0.000000
												CHANNELS 3 Xrotation Yrotation Zrotation
												JOINT LeftHandPinky3
												{
													OFFSET 8.147003 0.000000 0.000000
													CHANNELS 3 Xrotation Yrotation Zrotation
													End Site
													{
														OFFSET 0.000000 0.000000 0.000000
													}
												}
											}
										}
									}
								}
							}
						}
					}
					JOINT RightShoulder
					{
						OFFSET -3.249400 8.794197 -1.372250
						CHANNELS 3 Xrotation Yrotation Zrotation
						JOINT RightShoulder_split
						{
							OFFSET -3.249400 8.794197 -1.372250
							CHANNELS 3 Xrotation Yrotation Zrotation
							JOINT RightArm
							{
								OFFSET -11.953299 -2.279007 -0.146200
								CHANNELS 3 Xrotation Yrotation Zrotation
								JOINT RightForeArm
								{
									OFFSET -18.448900 0.000000 0.000000
									CHANNELS 3 Xrotation Yrotation Zrotation
									JOINT RightHand
									{
										OFFSET -29.527802 0.000000 0.000000
										CHANNELS 3 Xrotation Yrotation Zrotation
										JOINT RightHandThumb1
										{
											OFFSET -10.739754 -2.369614 9.225399
											CHANNELS 3 Xrotation Yrotation Zrotation
											JOINT RightHandThumb2
											{
												OFFSET -4.926170 -2.844131 2.844125
												CHANNELS 3 Xrotation Yrotation Zrotation
												JOINT RightHandThumb3
												{
													OFFSET -4.614891 -2.664413 2.664409
													CHANNELS 3 Xrotation Yrotation Zrotation
													JOINT RightHandThumb4
													{
														OFFSET -4.432465 -2.559082 2.559083
														CHANNELS 3 Xrotation Yrotation Zrotation
														End Site
														{
															OFFSET 0.000000 0.000000 0.000000
														}
													}
												}
											}
										}
										JOINT RightHandIndex1
										{
											OFFSET -26.467674 0.187653 6.405298
											CHANNELS 3 Xrotation Yrotation Zrotation
											JOINT RightHandIndex2
											{
												OFFSET -8.792900 0.000000 0.000000
												CHANNELS 3 Xrotation Yrotation Zrotation
												JOINT RightHandIndex3
												{
													OFFSET -10.075203 0.000000 0.000000
													CHANNELS 3 Xrotation Yrotation Zrotation
													End Site
													{
														OFFSET 0.000000 0.000000 0.000000
													}
												}
											}
										}
										JOINT RightHandMiddle1
										{
											OFFSET -25.764404 0.000000 0.000000
											CHANNELS 3 Xrotation Yrotation Zrotation
											JOINT RightHandMiddle2
											{
												OFFSET -9.393974 0.000000 0.000000
												CHANNELS 3 Xrotation Yrotation Zrotation
												JOINT RightHandMiddle3
												{
													OFFSET -10.771950 0.000000 0.000000
													CHANNELS 3 Xrotation Yrotation Zrotation
													End Site
													{
														OFFSET 0.000000 0.000000 0.000000
													}
												}
											}
										}
										JOINT RightHandRing1
										{
											OFFSET -24.660927 0.144547 -6.225808
											CHANNELS 3 Xrotation Yrotation Zrotation
											JOINT RightHandRing2
											{
												OFFSET -9.393799 0.000000 0.000000
												CHANNELS 3 Xrotation Yrotation Zrotation
												JOINT RightHandRing3
												{
													OFFSET -9.928497 0.000000 0.000000
													CHANNELS 3 Xrotation Yrotation Zrotation
													End Site
													{
														OFFSET 0.000000 0.000000 0.000000
													}
												}
											}
										}
										JOINT RightHandPinky1
										{
											OFFSET -23.655350 0.125290 -12.815412
											CHANNELS 3 Xrotation Yrotation Zrotation
											JOINT RightHandPinky2
											{
												OFFSET -8.425102 0.000000 0.000000
												CHANNELS 3 Xrotation Yrotation Zrotation
												JOINT RightHandPinky3
												{
													OFFSET -8.147003 0.000000 0.000000
													CHANNELS 3 Xrotation Yrotation Zrotation
													End Site
													{
														OFFSET 0.000000 0.000000 0.000000
													}
												}
											}
										}
									}
								}
							}
						}
					}
				}
			}
		}
	}
	JOINT LeftUpLeg
	{
		OFFSET 11.394100 -6.187798 -0.413800
		CHANNELS 3 Xrotation Yrotation Zrotation
		JOINT LeftLeg
		{
			OFFSET 0.430247 -32.302673 3.732800
			CHANNELS 3 Xrotation Yrotation Zrotation
			JOINT LeftFoot
			{
				OFFSET -0.430247 -48.264931 -6.423300
				CHANNELS 3 Xrotation Yrotation Zrotation
				JOINT LeftToeBase
				{
					OFFSET 4.230900 -16.068199 23.438400
					CHANNELS 3 Xrotation Yrotation Zrotation
					JOINT LeftToe_End
					{
						OFFSET 4.510700 0.695400 19.974600
						CHANNELS 3 Xrotation Yrotation Zrotation
						End Site
						{
							OFFSET 0.000000 0.000000 0.000000
						}
					}
				}
			}
		}
	}
	JOINT RightUpLeg
	{
		OFFSET -11.333700 -6.187798 -0.413800
		CHANNELS 3 Xrotation Yrotation Zrotation
		JOINT RightLeg
		{
			OFFSET -0.430392 -32.302628 3.733000
			CHANNELS 3 Xrotation Yrotation Zrotation
			JOINT RightFoot
			{
				OFFSET 0.430392 -48.264973 -6.423500
				CHANNELS 3 Xrotation Yrotation Zrotation
				JOINT RightToeBase
				{
					OFFSET -4.230900 -16.068199 23.438400
					CHANNELS 3 Xrotation Yrotation Zrotation
					JOINT RightToe_End
					{
						OFFSET -4.510700 0.695400 19.974600
						CHANNELS 3 Xrotation Yrotation Zrotation
						End Site
						{
							OFFSET 0.000000 0.000000 0.000000
						}
					}
				}
			}
		}
	}
}
MOTION
Frames: 4
Frame Time: 0.016667
-0.435786 99.689384 11.901811 4.070527 36.462849 -2.752490 7.112851 0.534303 -2.439097 1.179946 0.647739 1.438046 0.000000 0.000000 0.000000 1.171142 0.823284 1.416791 -1.447714 25.849747 -8.284146 -8.495193 20.302444 -2.010671 0.000000 -0.000000 -0.000000 -0.063459 -2.703537 -0.486094 0.000000 0.000000 0.000000 -58.743821 21.372239 -22.798864 10.391568 -75.898360 11.787572 -50.033902 13.093964 4.982036 17.538857 -5.734670 -12.929164 10.855092 26.140259 8.645415 20.951643 51.158708 0.208849 0.000001 0.000000 -0.000005 13.990885 1.412548 -54.992028 0.369647 1.160686 -65.362574 0.000001 -0.000001 0.000001 7.444390 1.211129 -63.725556 1.805183 1.477048 -64.469466 -0.000001 -0.000000 0.000001 8.572768 2.194681 -75.055733 -0.208477 1.006756 -57.746408 -0.000001 -0.000000 -0.000005 10.012754 13.637229 -84.737642 0.876231 0.062051 -64.553901 -0.000000 -0.000000 0.000003 4.836704 8.975269 6.727819 0.000000 0.000000 0.000000 10.740025 17.144868 61.498415 10.869389 22.267136 -5.100404 -0.365992 5.346439 5.429067 15.788510 -2.734475 -17.205865 -1.822786 -31.650830 7.412949 -6.030942 -5.243006 2.168340 -0.000001 -0.000001 -0.000000 2.375268 -3.654560 13.539323 -2.144079 -2.475442 24.342726 0.000001 0.000000 -0.000003 -1.975829 -5.709693 18.810592 0.284033 -5.102732 32.657580 0.000002 -0.000000 -0.000003 -3.263402 -8.564389 16.917258 4.034734 -4.065627 38.932321 0.000000 -0.000001 0.000003 -6.473132 -11.350193 28.409170 10.721015 -2.560809 40.492408 0.000001 -0.000000 0.000002 -26.809626 6.088936 5.330824 22.820613 -35.363072 -5.097841 -4.279998 -6.354059 2.631989 -0.121072 -0.038772 -0.589221 -0.000001 -0.000000 -0.000000 -15.627843 14.737824 0.399085 22.580518 12.496168 1.078970 -10.615235 2.666274 -0.405401 -0.761729 -0.032686 0.008806 -0.000000 0.000000 -0.000000 
-1.213801 99.797928 12.280319 4.328481 39.282822 -3.186732 7.214245 0.403246 -2.650077 1.139007 0.472321 1.508123 0.000000 0.000000 0.000000 1.129821 0.657999 1.495975 -1.497329 24.861771 -8.282024 -9.017808 19.238502 -1.161759 0.000000 0.000000 0.000000 -0.098277 -4.304851 -0.130146 0.000000 0.000000 0.000000 -58.723446 20.289145 -23.609852 9.881864 -75.007047 11.444929 -50.003381 13.081691 4.645809 17.538831 -5.734749 -12.929152 10.856121 26.143019 8.645539 20.949742 51.155340 0.209598 -0.000001 0.000001 -0.000003 13.990633 1.416731 -54.990136 0.369583 1.160658 -65.359378 -0.000002 -0.000001 0.000002 7.443660 1.211638 -63.724572 1.805150 1.477062 -64.467943 0.000001 0.000000 -0.000000 8.572806 2.194721 -75.057584 -0.208461 1.006793 -57.748163 0.000001 -0.000000 -0.000002 10.014135 13.637227 -84.738626 0.876278 0.062052 -64.556079 -0.000000 0.000000 0.000002 4.845228 8.887814 6.669461 0.000000 0.000000 0.000000 9.629283 15.060113 62.090272 10.941244 22.517797 -5.122147 -0.392319 5.635254 5.539869 15.788510 -2.734475 -17.205865 -1.914321 -31.520135 7.399889 -6.150521 -4.993756 2.220935 0.000001 0.000001 0.000000 2.374037 -3.654714 14.015430 -2.143512 -2.475497 24.691632 0.000001 0.000000 -0.000004 -1.975727 -5.709864 19.281545 0.284159 -5.104062 33.006486 0.000001 -0.000001 0.000000 -3.264524 -8.564567 17.388002 4.034665 -4.065556 39.281186 0.000000 -0.000000 0.000001 -6.473073 -11.350423 28.880058 10.721158 -2.560950 40.841290 0.000000 -0.000000 0.000004 -27.376301 6.382113 5.881838 22.265865 -38.712044 -5.327874 -4.603857 -4.412212 2.175189 -0.111911 -0.038829 -0.619491 0.000000 0.000000 -0.000000 -15.196792 13.832867 1.043106 22.173386 11.432282 0.991080 -10.498235 1.589680 -0.931365 -0.760466 -0.032690 0.011433 -0.000000 0.000001 0.000000 
-1.975201 99.856033 12.547382 4.729863 41.576301 -3.797563 7.288812 0.356362 -2.785214 1.074961 0.409433 1.547332 0.000000 0.000000 0.000000 1.065680 0.600865 1.538320 -1.669407 23.934919 -8.054796 -9.247519 18.341346 -0.647392 0.000000 0.000000 -0.000000 -0.137371 -5.857315 0.179677 0.000000 0.000000 0.000000 -58.765117 19.401612 -24.164864 9.711144 -74.412951 11.444962 -50.015973 13.301358 4.477776 17.538794 -5.734841 -12.929144 10.857143 26.145788 8.645665 20.947799 51.151973 0.210381 0.000002 -0.000001 -0.000001 13.990329 1.420893 -54.988282 0.369538 1.160612 -65.356250 -0.000001 -0.000002 -0.000002 7.442971 1.212100 -63.723616 1.805136 1.477067 -64.466440 0.000002 0.000000 0.000002 8.572842 2.194769 -75.059435 -0.208428 1.006841 -57.749891 0.000001 -0.000001 -0.000001 10.015514 13.637212 -84.739582 0.876308 0.062077 -64.557719 -0.000000 -0.000000 0.000000 4.849108 8.873608 6.578574 0.000000 0.000000 0.000000 8.499943 12.815115 62.567347 10.948446 22.781415 -5.092081 -0.404708 5.981682 5.562215 15.788512 -2.734475 -17.205865 -1.995412 -31.404151 7.388584 -6.258806 -4.769361 2.268990 -0.000001 0.000003 -0.000001 2.372863 -3.654844 14.485515 -2.142875 -2.475696 25.045066 0.000000 -0.000000 0.000002 -1.975667 -5.710068 19.743907 0.284320 -5.105373 33.359808 0.000001 -0.000001 0.000001 -3.265560 -8.564767 17.850230 4.034658 -4.066065 39.634515 0.000000 0.000001 0.000000 -6.472938 -11.350362 29.342530 10.721306 -2.561069 41.194695 0.000000 -0.000000 0.000001 -27.970244 7.038004 6.944662 22.000842 -37.502499 -4.992781 -4.737978 -4.658367 1.067529 -0.094634 -0.039030 -0.589711 -0.000000 0.000000 -0.000000 -15.160409 13.101192 1.760423 21.872086 10.138173 0.885152 -10.306581 1.077629 -1.247405 -0.759827 -0.032729 0.012692 -0.000000 -0.000000 0.000000 
-2.717358 99.887459 12.743150 5.166124 43.556738 -4.453662 7.373141 0.351985 -2.903295 1.021575 0.402672 1.586730 0.000000 0.000000 0.000000 1.011849 0.599493 1.577685 -1.918169 23.066290 -7.797572 -9.375050 17.512248 -0.237608 0.000000 0.000000 0.000000 -0.156232 -7.215443 0.446553 0.000000 0.000000 0.000000 -58.915019 18.233868 -24.765118 9.439961 -73.554430 11.301879 -49.997466 13.434669 4.113513 17.538777 -5.734919 -12.929133 10.858175 26.148580 8.645783 20.945847 51.148650 0.211180 0.000003 -0.000001 -0.000001 13.990051 1.425078 -54.986411 0.369503 1.160561 -65.353053 0.000000 0.000000 0.000001 7.442271 1.212583 -63.722632 1.805079 1.477102 -64.464951 0.000001 -0.000001 -0.000001 8.572869 2.194774 -75.061306 -0.208432 1.006888 -57.751633 -0.000000 -0.000001 -0.000000 10.016883 13.637195 -84.740572 0.876315 0.062087 -64.559003 0.000000 0.000000 0.000000 4.849875 8.905628 6.467970 0.000000 0.000000 0.000000 7.348095 10.428501 62.949592 10.867239 23.018825 -5.002922 -0.408418 6.356060 5.557319 15.788512 -2.734475 -17.205865 -2.064806 -31.304792 7.379063 -6.354875 -4.573789 2.311987 -0.000000 -0.000001 -0.000002 2.372196 -3.658616 14.937731 -2.142228 -2.475759 25.392321 -0.000000 -0.000000 -0.000000 -1.975987 -5.710183 20.185571 0.284469 -5.106716 33.706994 0.000001 -0.000000 0.000001 -3.266479 -8.564918 18.291819 4.034681 -4.065981 39.981766 -0.000000 -0.000000 0.000001 -6.472831 -11.350818 29.784160 10.721336 -2.561124 41.541941 -0.000000 0.000000 0.000001 -28.483649 7.249445 8.168270 21.532276 -35.268109 -4.821494 -4.725422 -4.541205 -0.152443 -0.073166 -0.039230 -0.550339 -0.000000 -0.000000 0.000000 -15.295816 12.383422 2.450598 21.640392 9.111804 0.801124 -10.076159 0.610870 -1.542065 -0.759190 -0.032751 0.013642 0.000000 -0.000001 -0.000000 
